<svg xmlns="http://www.w3.org/2000/svg" viewBox="0 0 64 64" width="64" height="64">
  <!-- Green background circle -->
  <circle cx="32" cy="32" r="32" fill="#25D366"/>
  
  <!-- White WhatsApp message bubble icon -->
  <g fill="white">
    <!-- Message bubble/phone -->
    <path d="M32 12C21.5 12 13 20.5 13 31c0 3.5 0.9 6.8 2.5 9.7L12 54l14.3-7.1c2.9 1.5 6.2 2.4 9.7 2.4 10.5 0 19-8.5 19-19S42.5 12 32 12zm0 35c-3 0-5.8-0.7-8.3-2L24 47l1.2-8c-1.4-2.2-2.2-4.8-2.2-7.5 0-8.8 7.2-16 16-16s16 7.2 16 16-7.2 16-16 16z"/>
    
    <!-- Three dots indicating typing -->
    <circle cx="22" cy="33" r="2" fill="#25D366"/>
    <circle cx="32" cy="33" r="2" fill="#25D366"/>
    <circle cx="42" cy="33" r="2" fill="#25D366"/>
  </g>
</svg>
